<svg width="20" height="20" viewBox="0 0 20 20" fill="none" xmlns="http://www.w3.org/2000/svg">
<path d="M1.66602 7.49935V5.83268C1.66602 3.33268 3.33268 1.66602 5.83268 1.66602H14.166C16.666 1.66602 18.3327 3.33268 18.3327 5.83268V7.49935" stroke="currentColor" stroke-width="1.5" stroke-miterlimit="10" stroke-linecap="round" stroke-linejoin="round"/>
<path d="M1.66602 12.5V14.1667C1.66602 16.6667 3.33268 18.3333 5.83268 18.3333H14.166C16.666 18.3333 18.3327 16.6667 18.3327 14.1667V12.5" stroke="currentColor" stroke-width="1.5" stroke-miterlimit="10" stroke-linecap="round" stroke-linejoin="round"/>
<path d="M5.58398 7.7168L10.0007 10.2751L14.384 7.73348" stroke="currentColor" stroke-width="1.5" stroke-linecap="round" stroke-linejoin="round"/>
<path d="M10 14.8093V10.2676" stroke="currentColor" stroke-width="1.5" stroke-linecap="round" stroke-linejoin="round"/>
<path d="M8.96588 5.2418L6.29921 6.72515C5.69921 7.05849 5.19922 7.90015 5.19922 8.59181V11.4168C5.19922 12.1085 5.69088 12.9501 6.29921 13.2835L8.96588 14.7668C9.53254 15.0835 10.4659 15.0835 11.0409 14.7668L13.7075 13.2835C14.3075 12.9501 14.8076 12.1085 14.8076 11.4168V8.59181C14.8076 7.90015 14.3159 7.05849 13.7075 6.72515L11.0409 5.2418C10.4659 4.9168 9.53254 4.9168 8.96588 5.2418Z" stroke="currentColor" stroke-width="1.5" stroke-linecap="round" stroke-linejoin="round"/>
</svg>
