<svg width="20" height="20" viewBox="0 0 20 20" fill="none" xmlns="http://www.w3.org/2000/svg">
<path d="M10.7673 1.88345L16.1923 4.80845C16.8257 5.15011 16.8257 6.12511 16.1923 6.46678L10.7673 9.39178C10.284 9.65011 9.71732 9.65011 9.23398 9.39178L3.80898 6.46678C3.17565 6.12511 3.17565 5.15011 3.80898 4.80845L9.23398 1.88345C9.71732 1.62511 10.284 1.62511 10.7673 1.88345Z" stroke="white" stroke-width="1.5" stroke-linecap="round" stroke-linejoin="round"/>
<path d="M3.00768 8.44173L8.04935 10.9667C8.67435 11.2834 9.07435 11.9251 9.07435 12.6251V17.3917C9.07435 18.0834 8.34935 18.5251 7.73268 18.2167L2.69102 15.6917C2.06602 15.3751 1.66602 14.7334 1.66602 14.0334V9.26673C1.66602 8.57506 2.39102 8.1334 3.00768 8.44173Z" stroke="white" stroke-width="1.5" stroke-linecap="round" stroke-linejoin="round"/>
<path d="M16.9924 8.44173L11.9508 10.9667C11.3258 11.2834 10.9258 11.9251 10.9258 12.6251V17.3917C10.9258 18.0834 11.6508 18.5251 12.2674 18.2167L17.3091 15.6917C17.9341 15.3751 18.3341 14.7334 18.3341 14.0334V9.26673C18.3341 8.57506 17.6091 8.1334 16.9924 8.44173Z" stroke="white" stroke-width="1.5" stroke-linecap="round" stroke-linejoin="round"/>
</svg>
