<svg width="16" height="17" viewBox="0 0 16 17" fill="none" xmlns="http://www.w3.org/2000/svg">
<path d="M10.794 1.83398H5.20732C2.78065 1.83398 1.33398 3.28065 1.33398 5.70732V11.2873C1.33398 13.7207 2.78065 15.1673 5.20732 15.1673H10.7873C13.214 15.1673 14.6607 13.7207 14.6607 11.294V5.70732C14.6673 3.28065 13.2207 1.83398 10.794 1.83398ZM10.914 10.0673L9.43398 11.5473C9.07398 11.9073 8.60732 12.0807 8.14065 12.0807C7.67398 12.0807 7.20065 11.9007 6.84732 11.5473C6.50065 11.2007 6.30732 10.7407 6.30732 10.254C6.30732 9.76732 6.50065 9.30065 6.84732 8.96065L7.78732 8.02065C7.98065 7.82732 8.30065 7.82732 8.49398 8.02065C8.68732 8.21398 8.68732 8.53398 8.49398 8.72732L7.55398 9.66732C7.39398 9.82732 7.30732 10.034 7.30732 10.254C7.30732 10.474 7.39398 10.6873 7.55398 10.8407C7.88065 11.1673 8.40732 11.1673 8.73398 10.8407L10.214 9.36065C11.0607 8.51398 11.0607 7.14065 10.214 6.29398C9.36732 5.44732 7.99398 5.44732 7.14732 6.29398L5.53398 7.90732C5.19398 8.24732 5.00732 8.69398 5.00732 9.16732C5.00732 9.64065 5.19398 10.094 5.53398 10.4273C5.72732 10.6207 5.72732 10.9407 5.53398 11.134C5.34065 11.3273 5.02065 11.3273 4.82732 11.134C4.29398 10.6207 4.00065 9.92065 4.00065 9.17398C4.00065 8.42732 4.28732 7.72732 4.81398 7.20065L6.42732 5.58732C7.66065 4.35398 9.67399 4.35398 10.9073 5.58732C12.1473 6.82065 12.1473 8.83398 10.914 10.0673Z" fill="white"/>
</svg>
