<svg width="48" height="48" viewBox="0 0 48 48" fill="none" xmlns="http://www.w3.org/2000/svg">
<path d="M12 4H36C38.2 4 40 5.8 40 8V14.64C40 15.74 39.1 16.64 38 16.64H10C8.9 16.64 8 15.74 8 14.64V8C8 5.8 9.8 4 12 4Z" fill="#446DFF"/>
<path d="M8 20.6406V23.7606C8 25.9206 9.16 27.9206 11.06 28.9806L16.98 32.3206C18.24 33.0206 19.02 34.3606 19.02 35.8006V40.0006C19.02 42.2006 20.82 44.0006 23.02 44.0006H25.02C27.22 44.0006 29.02 42.2006 29.02 40.0006V35.8006C29.02 34.3606 29.8 33.0206 31.06 32.3206L36.98 28.9806C38.86 27.9206 40.04 25.9206 40.04 23.7606V20.6406C40.04 19.5406 39.14 18.6406 38.04 18.6406H10C8.9 18.6406 8 19.5206 8 20.6406Z" fill="#446DFF"/>
</svg>
