<svg width="36" height="37" viewBox="0 0 36 37" fill="none" xmlns="http://www.w3.org/2000/svg">
<path d="M20.1882 22.0566H15.8158C13.9271 22.0566 12.7969 23.1869 12.7969 25.0756V29.4479C12.7969 31.3366 13.9271 32.4669 15.8158 32.4669H20.1882C22.0769 32.4669 23.2071 31.3366 23.2071 29.4479V25.0756C23.2071 23.1869 22.0769 22.0566 20.1882 22.0566ZM21.5861 27.9013C21.4374 28.05 21.2143 28.1541 20.9764 28.1689H18.8794L18.8943 30.2361C18.8794 30.4889 18.7902 30.6972 18.6117 30.8756C18.463 31.0243 18.24 31.1284 18.002 31.1284C17.5112 31.1284 17.1097 30.7269 17.1097 30.2361V28.1541L15.0276 28.1689C14.5369 28.1689 14.1353 27.7525 14.1353 27.2618C14.1353 26.771 14.5369 26.3695 15.0276 26.3695L17.1097 26.3843V24.3023C17.1097 23.8115 17.5112 23.3951 18.002 23.3951C18.4928 23.3951 18.8943 23.8115 18.8943 24.3023L18.8794 26.3695H20.9764C21.4671 26.3695 21.8687 26.771 21.8687 27.2618C21.8538 27.5146 21.7497 27.7228 21.5861 27.9013Z" fill="#A2A7B3"/>
<path opacity="0.4" d="M32.4858 18.113C31.5786 15.1386 29.3181 12.9971 26.4776 12.3576C25.6448 8.63965 23.3545 5.9776 20.1125 4.96632C16.573 3.88068 12.4684 4.93658 9.89557 7.62837C7.62019 9.99299 6.8766 13.2499 7.75403 16.715C4.58634 17.4884 3.12891 20.2545 3.12891 22.753C3.12891 25.5489 4.95814 28.6868 9.03301 28.9694H12.7956V25.0581C12.7956 23.1694 13.9258 22.0391 15.8145 22.0391H20.1869C22.0756 22.0391 23.2058 23.1694 23.2058 25.0581V28.9694H24.4104C24.4253 28.9694 24.4551 28.9694 24.4699 28.9694C26.5817 28.9694 28.6043 28.1812 30.151 26.7684C32.5751 24.6566 33.4674 21.3402 32.4858 18.113Z" fill="#A2A7B3"/>
</svg>
