<svg width="16" height="16" viewBox="0 0 16 16" fill="none" xmlns="http://www.w3.org/2000/svg">
<path d="M8.00065 1.33331C4.32732 1.33331 1.33398 4.32665 1.33398 7.99998C1.33398 11.6733 4.32732 14.6666 8.00065 14.6666C11.674 14.6666 14.6673 11.6733 14.6673 7.99998C14.6673 4.32665 11.674 1.33331 8.00065 1.33331ZM5.33398 8.66665C4.96065 8.66665 4.66732 8.36665 4.66732 7.99998C4.66732 7.63331 4.96732 7.33331 5.33398 7.33331C5.70065 7.33331 6.00065 7.63331 6.00065 7.99998C6.00065 8.36665 5.70732 8.66665 5.33398 8.66665ZM8.00065 8.66665C7.62732 8.66665 7.33398 8.36665 7.33398 7.99998C7.33398 7.63331 7.63398 7.33331 8.00065 7.33331C8.36732 7.33331 8.66732 7.63331 8.66732 7.99998C8.66732 8.36665 8.37398 8.66665 8.00065 8.66665ZM10.6673 8.66665C10.294 8.66665 10.0007 8.36665 10.0007 7.99998C10.0007 7.63331 10.3007 7.33331 10.6673 7.33331C11.034 7.33331 11.334 7.63331 11.334 7.99998C11.334 8.36665 11.0407 8.66665 10.6673 8.66665Z" fill="#446DFF"/>
</svg>
