<svg width="20" height="20" viewBox="0 0 20 20" fill="none" xmlns="http://www.w3.org/2000/svg">
<path d="M18.3327 10.0001V7.50008C18.3327 3.33341 16.666 1.66675 12.4993 1.66675H7.49935C3.33268 1.66675 1.66602 3.33341 1.66602 7.50008V12.5001C1.66602 16.6667 3.33268 18.3334 7.49935 18.3334H9.99935" stroke="white" stroke-width="1.5" stroke-linecap="round" stroke-linejoin="round"/>
<path d="M17.4667 14.8667L16.1084 15.3251C15.7334 15.4501 15.4334 15.7417 15.3084 16.1251L14.8501 17.4834C14.4584 18.6584 12.8084 18.6334 12.4417 17.4584L10.9001 12.5001C10.6001 11.5167 11.5084 10.6001 12.4834 10.9084L17.4501 12.4501C18.6167 12.8167 18.6334 14.4751 17.4667 14.8667Z" stroke="white" stroke-width="1.5" stroke-linecap="round" stroke-linejoin="round"/>
</svg>
