<svg width="16" height="16" viewBox="0 0 16 16" fill="none" xmlns="http://www.w3.org/2000/svg">
<g clip-path="url(#clip0_875_15326)">
<path d="M12.5005 4.37C12.4555 4.3625 12.403 4.3625 12.358 4.37C11.323 4.3325 10.498 3.485 10.498 2.435C10.498 1.3625 11.3605 0.5 12.433 0.5C13.5055 0.5 14.368 1.37 14.368 2.435C14.3605 3.485 13.5355 4.3325 12.5005 4.37Z" stroke="currentColor" stroke-width="1.5" stroke-linecap="round" stroke-linejoin="round"/>
<path d="M11.7276 9.83012C12.7551 10.0026 13.8876 9.82262 14.6826 9.29012C15.7401 8.58512 15.7401 7.43012 14.6826 6.72512C13.8801 6.19262 12.7326 6.01262 11.7051 6.19262" stroke="currentColor" stroke-width="1.5" stroke-linecap="round" stroke-linejoin="round"/>
<path d="M3.47688 4.37C3.52188 4.3625 3.57438 4.3625 3.61938 4.37C4.65438 4.3325 5.47937 3.485 5.47937 2.435C5.47937 1.3625 4.61688 0.5 3.54438 0.5C2.47188 0.5 1.60938 1.37 1.60938 2.435C1.61687 3.485 2.44188 4.3325 3.47688 4.37Z" stroke="currentColor" stroke-width="1.5" stroke-linecap="round" stroke-linejoin="round"/>
<path d="M4.25008 9.83012C3.22258 10.0026 2.09008 9.82262 1.29508 9.29012C0.237578 8.58512 0.237578 7.43012 1.29508 6.72512C2.09758 6.19262 3.24508 6.01262 4.27258 6.19262" stroke="currentColor" stroke-width="1.5" stroke-linecap="round" stroke-linejoin="round"/>
<path d="M7.99859 9.97254C7.95359 9.96504 7.90109 9.96504 7.85609 9.97254C6.82109 9.93504 5.99609 9.08754 5.99609 8.03754C5.99609 6.96504 6.85859 6.10254 7.93109 6.10254C9.00359 6.10254 9.86609 6.97254 9.86609 8.03754C9.85859 9.08754 9.03359 9.94254 7.99859 9.97254Z" stroke="currentColor" stroke-width="1.5" stroke-linecap="round" stroke-linejoin="round"/>
<path d="M5.81656 12.335C4.75906 13.04 4.75906 14.195 5.81656 14.9C7.01656 15.7025 8.98156 15.7025 10.1816 14.9C11.2391 14.195 11.2391 13.04 10.1816 12.335C8.98906 11.54 7.01656 11.54 5.81656 12.335Z" stroke="currentColor" stroke-width="1.5" stroke-linecap="round" stroke-linejoin="round"/>
</g>
<defs>
<clipPath id="clip0_875_15326">
<rect width="16" height="16" fill="white"/>
</clipPath>
</defs>
</svg>
