<svg width="16" height="17" viewBox="0 0 16 17" fill="none" xmlns="http://www.w3.org/2000/svg">
<path d="M8.00065 6C6.80732 6 5.83398 6.97333 5.83398 8.16667C5.83398 9.36 6.80732 10.3333 8.00065 10.3333C9.19398 10.3333 10.1673 9.36 10.1673 8.16667C10.1673 6.97333 9.19398 6 8.00065 6ZM8.66732 7.95333C8.66732 8.36 8.44732 8.74667 8.10065 8.95333L7.58732 9.26C7.50732 9.30667 7.42065 9.33333 7.32732 9.33333C7.16065 9.33333 6.99398 9.24667 6.90065 9.09333C6.76065 8.85333 6.83398 8.54667 7.07398 8.40667L7.58065 8.1C7.63398 8.06667 7.66065 8.01333 7.66065 7.96V7.34C7.66065 7.06667 7.88732 6.84 8.16065 6.84C8.43398 6.84 8.66732 7.06 8.66732 7.33333V7.95333Z" fill="#A6B0C3"/>
<path d="M12.3605 3.27997L8.69385 1.90664C8.31385 1.76664 7.69385 1.76664 7.31385 1.90664L3.64719 3.27997C2.94052 3.54664 2.36719 4.3733 2.36719 5.12664V10.5266C2.36719 11.0666 2.72052 11.78 3.15385 12.1L6.82052 14.84C7.46719 15.3266 8.52719 15.3266 9.17385 14.84L12.8405 12.1C13.2739 11.7733 13.6272 11.0666 13.6272 10.5266V5.12664C13.6339 4.3733 13.0605 3.54664 12.3605 3.27997ZM8.00052 11.3333C6.25385 11.3333 4.83385 9.9133 4.83385 8.16664C4.83385 6.41997 6.25385 4.99997 8.00052 4.99997C9.74719 4.99997 11.1672 6.41997 11.1672 8.16664C11.1672 9.9133 9.74719 11.3333 8.00052 11.3333Z" fill="#A6B0C3"/>
</svg>
