<svg width="16" height="17" viewBox="0 0 16 17" fill="none" xmlns="http://www.w3.org/2000/svg">
<path d="M12.3605 3.24664L8.69385 1.87331C8.31385 1.73331 7.69385 1.73331 7.31385 1.87331L3.64719 3.24664C2.94052 3.51331 2.36719 4.33998 2.36719 5.09331V10.4933C2.36719 11.0333 2.72052 11.7466 3.15385 12.0666L6.82052 14.8066C7.46719 15.2933 8.52719 15.2933 9.17385 14.8066L12.8405 12.0666C13.2739 11.74 13.6272 11.0333 13.6272 10.4933V5.09331C13.6339 4.33998 13.0605 3.51331 12.3605 3.24664ZM10.3205 6.97998L7.45385 9.84664C7.35385 9.94664 7.22719 9.99331 7.10052 9.99331C6.97385 9.99331 6.84719 9.94664 6.74719 9.84664L5.68052 8.76664C5.48719 8.57331 5.48719 8.25331 5.68052 8.05998C5.87385 7.86664 6.19385 7.86664 6.38719 8.05998L7.10719 8.77998L9.62052 6.26664C9.81385 6.07331 10.1339 6.07331 10.3272 6.26664C10.5205 6.45998 10.5205 6.78664 10.3205 6.97998Z" fill="#446DFF"/>
</svg>
