<svg width="20" height="20" viewBox="0 0 20 20" fill="none" xmlns="http://www.w3.org/2000/svg">
<path d="M5.00065 1.66602H15.0006C15.9173 1.66602 16.6673 2.41602 16.6673 3.33268V6.93269H3.33398V3.33268C3.33398 2.41602 4.08398 1.66602 5.00065 1.66602Z" stroke="white" stroke-width="1.5" stroke-linecap="round" stroke-linejoin="round"/>
<path d="M3.33398 6.93359V9.90026C3.33398 10.8003 3.81734 11.6336 4.60901 12.0752L7.07564 13.4669C7.60064 13.7586 7.92566 14.3169 7.92566 14.9169V16.6669C7.92566 17.5836 8.67566 18.3336 9.59233 18.3336H10.4257C11.3423 18.3336 12.0923 17.5836 12.0923 16.6669V14.9169C12.0923 14.3169 12.4173 13.7586 12.9423 13.4669L15.409 12.0752C16.1923 11.6336 16.684 10.8003 16.684 9.90026V6.93359H3.33398Z" stroke="white" stroke-width="1.5" stroke-linecap="round" stroke-linejoin="round"/>
</svg>
