<svg width="44" height="44" viewBox="0 0 44 44" fill="none" xmlns="http://www.w3.org/2000/svg">
<path d="M28.1663 11.9841H28.0423C27.9896 11.9841 27.9401 11.9841 27.8874 11.9841C26.1615 11.9841 24.5063 11.2957 23.286 10.0705C22.0656 8.84519 21.38 7.18338 21.38 5.45059C21.38 5.38525 21.38 5.31992 21.38 5.25458C21.383 4.20976 21.0749 3.18788 20.4951 2.32024C19.9153 1.4526 19.0903 0.778817 18.1262 0.385467C17.1621 -0.00788329 16.1029 -0.102838 15.0847 0.112801C14.0664 0.328441 13.1357 0.844825 12.4119 1.59561C11.6882 2.3464 11.2046 3.29729 11.0232 4.32613C10.8419 5.35497 10.971 6.41475 11.3941 7.36933C11.8172 8.32391 12.5149 9.12968 13.3976 9.68311C14.2803 10.2365 15.3076 10.5124 16.3476 10.4752C18.0735 10.4752 19.7286 11.1635 20.949 12.3888C22.1694 13.614 22.855 15.2759 22.855 17.0086C22.855 17.0771 22.855 17.1455 22.855 17.214C22.8552 18.2439 23.1583 19.2509 23.7263 20.1086C24.2942 20.9663 25.1018 21.6365 26.0477 22.0352C26.9936 22.4339 28.0357 22.5433 29.0432 22.3496C30.0508 22.156 30.979 21.668 31.7114 20.9468C32.4438 20.2257 32.9478 19.3034 33.1602 18.2958C33.3726 17.2881 33.2839 16.2399 32.9053 15.2827C32.5266 14.3255 31.8749 13.5018 31.0319 12.9149C30.1888 12.3281 29.1919 12.0043 28.1663 11.9841Z" fill="#81d401"/>
<path d="M10.4168 27.966V27.8384C10.4168 27.7855 10.4168 27.7358 10.4168 27.6829C10.4168 25.9501 11.1024 24.2883 12.3228 23.063C13.5431 21.8377 15.1983 21.1494 16.9242 21.1494C16.9893 21.1494 17.0512 21.1494 17.1163 21.1494C18.1303 21.1504 19.1226 20.8541 19.9712 20.2968C20.8198 19.7396 21.4879 18.9456 21.8933 18.0124C22.2987 17.0793 22.4239 16.0475 22.2535 15.044C22.083 14.0404 21.6243 13.1086 20.9338 12.3631C20.2432 11.6176 19.3508 11.0908 18.3662 10.8474C17.3816 10.604 16.3476 10.6546 15.3913 10.993C14.4349 11.3314 13.5978 11.9428 12.9827 12.7522C12.3676 13.5616 12.0014 14.5338 11.929 15.5492C11.929 15.7297 11.929 15.9101 11.929 16.0875C11.929 17.8203 11.2434 19.4821 10.023 20.7074C8.80263 21.9326 7.14745 22.621 5.42158 22.621C5.35341 22.621 5.28523 22.621 5.21396 22.621C4.18839 22.62 3.18534 22.923 2.33057 23.492C1.47581 24.061 0.807346 24.8707 0.408995 25.8195C0.0106447 26.7683 -0.0998712 27.8141 0.0913019 28.8258C0.282475 29.8374 0.76683 30.7699 1.48365 31.5063C2.20047 32.2427 3.11785 32.7503 4.12079 32.9654C5.12374 33.1805 6.16762 33.0936 7.12156 32.7155C8.07551 32.3375 8.89708 31.6851 9.48328 30.8402C10.0695 29.9953 10.3942 28.9954 10.4168 27.966Z" fill="#58c402"/>
<path d="M27.9643 33.5322H27.8403C27.7877 33.5322 27.735 33.5322 27.6823 33.5322C25.9564 33.5322 24.3012 32.8438 23.0809 31.6185C21.8605 30.3933 21.1749 28.7314 21.1749 26.9987C21.1749 26.9333 21.1749 26.868 21.1749 26.8027C21.178 25.7581 20.87 24.7364 20.2905 23.8689C19.711 23.0014 18.8865 22.3275 17.9228 21.934C16.959 21.5404 15.9001 21.445 14.882 21.6601C13.8639 21.8752 12.9331 22.391 12.2091 23.1412C11.4851 23.8913 11.0009 24.8416 10.8188 25.8701C10.6367 26.8985 10.765 27.9581 11.1871 28.9129C11.6093 29.8676 12.306 30.6738 13.1879 31.2281C14.0698 31.7823 15.0965 32.0592 16.1363 32.0232C17.8622 32.0232 19.5174 32.7116 20.7377 33.9368C21.9581 35.1621 22.6437 36.8239 22.6437 38.5567C22.6437 38.6252 22.6437 38.6936 22.6437 38.7621C22.6421 39.792 22.9435 40.7995 23.5099 41.6582C24.0764 42.5169 24.8828 43.1885 25.828 43.5888C26.7732 43.9892 27.815 44.1004 28.8229 43.9086C29.8308 43.7168 30.7598 43.2304 31.4935 42.5105C32.2272 41.7907 32.7328 40.8693 32.947 39.8621C33.1611 38.8548 33.0743 37.8065 32.6974 36.8486C32.3205 35.8906 31.6702 35.0658 30.8282 34.4775C29.9862 33.8892 28.9899 33.5635 27.9643 33.5415V33.5322Z" fill="#f9a138"/>
<path d="M32.0887 28.1406V28.013C32.0887 27.9601 32.0887 27.9103 32.0887 27.8574C32.0887 26.1246 32.7743 24.4628 33.9946 23.2376C35.215 22.0123 36.8702 21.3239 38.5961 21.3239C38.6611 21.3239 38.7231 21.3239 38.7882 21.3239C39.8022 21.325 40.7944 21.0287 41.6431 20.4714C42.4917 19.9141 43.1597 19.1202 43.5652 18.187C43.9706 17.2538 44.0958 16.2221 43.9253 15.2185C43.7549 14.2149 43.2962 13.2832 42.6056 12.5376C41.9151 11.7921 41.0227 11.2653 40.0381 11.0219C39.0535 10.7785 38.0195 10.8291 37.0631 11.1675C36.1068 11.5059 35.2697 12.1174 34.6546 12.9268C34.0395 13.7362 33.6733 14.7083 33.6009 15.7238C33.6009 15.9074 33.6009 16.0878 33.6009 16.2652C33.6009 17.9979 32.9153 19.6598 31.6949 20.885C30.4745 22.1103 28.8193 22.7986 27.0935 22.7986C27.0253 22.7986 26.9571 22.7986 26.8858 22.7986C25.8603 22.7977 24.8572 23.1007 24.0024 23.6697C23.1477 24.2387 22.4792 25.0483 22.0809 25.9972C21.6825 26.946 21.572 27.9918 21.7632 29.0034C21.9543 30.0151 22.4387 30.9475 23.1555 31.684C23.8723 32.4204 24.7897 32.9279 25.7927 33.1431C26.7956 33.3582 27.8395 33.2712 28.7934 32.8932C29.7474 32.5151 30.569 31.8628 31.1551 31.0178C31.7413 30.1729 32.0661 29.1731 32.0887 28.1437V28.1406Z" fill="#f2822f"/>
</svg>
