<svg width="123" height="56" viewBox="0 0 123 56" fill="none" xmlns="http://www.w3.org/2000/svg">
<path d="M3.23542 54.3559H1.09961V48.6709H3.23542C5.05367 48.6709 5.9192 49.7566 5.9192 51.5149C5.9192 53.2733 5.0599 54.3559 3.23542 54.3559ZM3.26033 49.2216H1.78145V53.8052H3.26033C4.57731 53.8052 5.23736 53.023 5.23736 51.5149C5.23736 50.0069 4.57731 49.2216 3.26033 49.2216Z" fill="#13486b"/>
<path d="M6.69152 49.045C6.69069 48.9931 6.70093 48.9417 6.72155 48.8942C6.74216 48.8467 6.77267 48.8041 6.81103 48.7694C6.84938 48.7348 6.89468 48.7087 6.94388 48.6931C6.99308 48.6775 7.04504 48.6727 7.09626 48.6789C7.14714 48.6742 7.19844 48.6802 7.24688 48.6965C7.29532 48.7129 7.33984 48.7392 7.37759 48.7738C7.41535 48.8084 7.4455 48.8505 7.46614 48.8975C7.48677 48.9444 7.49743 48.9952 7.49743 49.0466C7.49743 49.0979 7.48677 49.1487 7.46614 49.1957C7.4455 49.2426 7.41535 49.2848 7.37759 49.3194C7.33984 49.354 7.29532 49.3803 7.24688 49.3966C7.19844 49.4129 7.14714 49.4189 7.09626 49.4142C7.04478 49.4205 6.99255 49.4156 6.94312 49.3998C6.89369 49.384 6.84823 49.3577 6.80983 49.3227C6.77142 49.2876 6.74098 49.2447 6.72056 49.1968C6.70015 49.1489 6.69024 49.0971 6.69152 49.045ZM6.77246 54.3639V50.2339H7.4294V54.3545L6.77246 54.3639Z" fill="#13486b"/>
<path d="M8.2793 52.1768C8.2793 50.9785 8.95491 50.1556 10.0602 50.1556C10.3657 50.128 10.6718 50.2009 10.9324 50.3635C11.193 50.526 11.3939 50.7693 11.5048 51.0567V50.2338H12.1275V54.0822C12.1275 55.3525 11.4519 56.0002 10.2376 56.0002C9.08568 56.0002 8.49724 55.4182 8.49724 54.5703H9.10747C9.16351 55.1961 9.58383 55.5434 10.275 55.5434C11.0285 55.5434 11.4737 55.1366 11.4737 54.2261V53.3344C11.2433 53.907 10.7607 54.1949 10.0602 54.1949C8.95491 54.1949 8.2793 53.372 8.2793 52.1768ZM11.4737 52.1768C11.4737 51.1693 10.9568 50.6343 10.2034 50.6343C9.44995 50.6343 8.93934 51.1693 8.93934 52.1768C8.93934 53.1843 9.45617 53.7162 10.2034 53.7162C10.9506 53.7162 11.4737 53.1811 11.4737 52.1768Z" fill="#13486b"/>
<path d="M13.0646 49.045C13.0637 48.9931 13.074 48.9417 13.0946 48.8942C13.1152 48.8467 13.1457 48.8041 13.1841 48.7694C13.2224 48.7348 13.2677 48.7087 13.3169 48.6931C13.3661 48.6775 13.4181 48.6727 13.4693 48.6789C13.5202 48.6742 13.5715 48.6802 13.6199 48.6965C13.6684 48.7129 13.7129 48.7392 13.7506 48.7738C13.7884 48.8084 13.8186 48.8505 13.8392 48.8975C13.8598 48.9444 13.8705 48.9952 13.8705 49.0466C13.8705 49.0979 13.8598 49.1487 13.8392 49.1957C13.8186 49.2426 13.7884 49.2848 13.7506 49.3194C13.7129 49.354 13.6684 49.3803 13.6199 49.3966C13.5715 49.4129 13.5202 49.4189 13.4693 49.4142C13.4178 49.4205 13.3656 49.4156 13.3162 49.3998C13.2667 49.384 13.2213 49.3577 13.1829 49.3227C13.1445 49.2876 13.114 49.2447 13.0936 49.1968C13.0732 49.1489 13.0633 49.0971 13.0646 49.045ZM13.1424 54.3639V50.2339H13.8024V54.3545L13.1424 54.3639Z" fill="#13486b"/>
<path d="M15.1693 53.397V50.7094H14.4688V50.2276H15.1693V48.9761H15.8293V50.2276H16.8132V50.7094H15.8293V53.4064C15.8293 53.8069 15.9632 53.9008 16.3835 53.9008L16.8132 53.8851V54.3482C16.6544 54.3482 16.3928 54.3888 16.2496 54.3888C15.4619 54.3951 15.1693 54.1511 15.1693 53.397Z" fill="#13486b"/>
<path d="M17.4473 53.1907C17.4473 52.5837 17.8302 52.1112 18.8296 52.0236L19.5862 51.9611C20.1404 51.911 20.2992 51.7921 20.2992 51.4886C20.2992 50.963 20.0065 50.6345 19.3216 50.6345C18.6989 50.6345 18.3533 50.9067 18.3066 51.4886H17.6839C17.6839 50.6751 18.182 50.1558 19.3278 50.1558C20.4735 50.1558 20.9717 50.6751 20.9717 51.4886V53.3002C20.9425 53.6567 20.986 54.0155 21.0993 54.3546H20.5078C20.3575 54.1235 20.2945 53.846 20.3303 53.5724C20.1093 54.1481 19.6236 54.4359 18.9012 54.4359C17.9734 54.4359 17.4473 53.9572 17.4473 53.1907ZM20.2992 52.5649V52.1582C20.099 52.3234 19.845 52.4081 19.5862 52.396L19.0195 52.446C18.3688 52.4929 18.1073 52.7589 18.1073 53.1562C18.1073 53.6256 18.3937 53.9791 19.0756 53.9791C19.8882 53.9729 20.3147 53.3252 20.3147 52.5587L20.2992 52.5649Z" fill="#13486b"/>
<path d="M21.9688 54.3549V48.6699H22.6303V54.3549H21.9688Z" fill="#13486b"/>
<path d="M30.0264 54.3549L29.4629 52.9188H26.7449L26.1814 54.3549H25.4746L27.6914 48.6699H28.5164L30.7332 54.3549H30.0264ZM28.0992 49.3238L26.9161 52.3838H29.2761L28.0992 49.3238Z" fill="#13486b"/>
<path d="M31.2656 53.1031H31.8883C31.9288 53.613 32.1343 53.9791 32.9624 53.9791C33.7906 53.9791 34.0148 53.613 34.0148 53.2126C34.0148 52.8121 33.7595 52.6556 33.3392 52.5868L32.5359 52.4679C31.7638 52.3553 31.3902 52.0674 31.3902 51.4073C31.3902 50.7471 31.7825 50.1558 32.9718 50.1558C34.1611 50.1558 34.5627 50.7221 34.5627 51.426H33.9401C33.8996 51.0005 33.775 50.6094 32.978 50.6094C32.3024 50.6094 32.044 50.891 32.044 51.3603C32.044 51.7608 32.2681 51.8891 32.6169 51.936L33.4263 52.0549C34.1891 52.1676 34.6717 52.4617 34.6717 53.1813C34.6717 53.9009 34.2265 54.4328 32.9718 54.4328C31.7171 54.4328 31.2656 53.8696 31.2656 53.1031Z" fill="#13486b"/>
<path d="M35.3477 53.1031H35.9703C36.0108 53.613 36.2163 53.9791 37.0445 53.9791C37.8727 53.9791 38.075 53.613 38.075 53.2126C38.075 52.8121 37.8228 52.6556 37.3994 52.5868L36.5993 52.4679C35.8271 52.3553 35.4535 52.0674 35.4535 51.4073C35.4535 50.7471 35.8427 50.1558 37.0351 50.1558C38.2276 50.1558 38.623 50.7221 38.623 51.426H38.0003C37.9598 51.0005 37.8322 50.6094 37.0383 50.6094C36.3626 50.6094 36.1042 50.891 36.1042 51.3603C36.1042 51.7608 36.3253 51.8891 36.6771 51.936L37.4866 52.0549C38.2494 52.1676 38.732 52.4617 38.732 53.1813C38.732 53.9009 38.2867 54.4328 37.032 54.4328C35.7773 54.4328 35.3477 53.8696 35.3477 53.1031Z" fill="#13486b"/>
<path d="M39.4316 52.2958C39.4316 51.0256 40.0823 50.1558 41.3464 50.1558C42.6105 50.1558 43.2705 51.0506 43.2705 52.1988C43.2783 52.2654 43.2783 52.3326 43.2705 52.3991H40.0917C40.0917 53.516 40.6303 53.9635 41.3931 53.9635C41.6633 53.9842 41.9322 53.9083 42.1521 53.7491C42.372 53.59 42.5288 53.3578 42.5949 53.0937H43.1833C42.9903 53.9134 42.4268 54.4265 41.3931 54.4265C40.1322 54.4359 39.4316 53.6193 39.4316 52.2958ZM40.0917 51.9517H42.6105C42.5233 51.0568 42.0532 50.6188 41.3464 50.6188C40.6397 50.6188 40.1789 51.0568 40.0917 51.9611V51.9517Z" fill="#13486b"/>
<path d="M44.3978 53.397V50.7094H43.6973V50.2276H44.3978V48.9761H45.0578V50.2276H46.0417V50.7094H45.0578V53.4064C45.0578 53.8069 45.1917 53.9008 45.612 53.9008L46.0417 53.8851V54.3482C45.8829 54.3482 45.6214 54.3888 45.4782 54.3888C44.6936 54.3951 44.3978 54.1511 44.3978 53.397Z" fill="#13486b"/>
<path d="M54.3903 54.3549V49.3176L52.3417 54.3549H51.7595L49.7108 49.3176V54.3549H49.0508V48.6699H50.1156L52.0646 53.3631L54.0011 48.6699H55.0659V54.3549H54.3903Z" fill="#13486b"/>
<path d="M55.9492 53.1907C55.9492 52.5837 56.3322 52.1112 57.3316 52.0236L58.0881 51.9611C58.6455 51.911 58.8042 51.7921 58.8042 51.4886C58.8042 50.963 58.4929 50.6345 57.8266 50.6345C57.2039 50.6345 56.8552 50.9067 56.8085 51.4886H56.1858C56.1858 50.6751 56.6871 50.1558 57.8297 50.1558C58.9724 50.1558 59.4736 50.6751 59.4736 51.4886V53.3002C59.4461 53.6567 59.4895 54.0151 59.6013 54.3546H59.0222C58.8732 54.123 58.8114 53.8456 58.8478 53.5724C58.6237 54.1481 58.1411 54.4359 57.4156 54.4359C56.4754 54.4359 55.9492 53.9572 55.9492 53.1907ZM58.8042 52.5649V52.1582C58.6025 52.3228 58.3478 52.4074 58.0881 52.396L57.5246 52.446C56.8739 52.4929 56.6093 52.7589 56.6093 53.1562C56.6093 53.6256 56.8957 53.9791 57.5807 53.9791C58.3902 53.9729 58.8042 53.3252 58.8042 52.5587V52.5649Z" fill="#13486b"/>
<path d="M63.1654 54.3545V51.7357C63.1654 51.0505 62.9194 50.6907 62.2594 50.6907C61.5994 50.6907 61.1292 51.2257 61.1292 52.0549V54.3545H60.4785V50.2339H61.1012V50.9942C61.2098 50.7312 61.3976 50.5089 61.6382 50.3585C61.8789 50.2082 62.1603 50.1372 62.4431 50.1557C63.3771 50.1557 63.8255 50.6344 63.8255 51.6325V54.3545H63.1654Z" fill="#13486b"/>
<path d="M64.6738 53.1907C64.6738 52.5837 65.0568 52.1112 66.0562 52.0236L66.8128 51.9611C67.3701 51.911 67.5289 51.7921 67.5289 51.4886C67.5289 50.963 67.2331 50.6345 66.5512 50.6345C65.9285 50.6345 65.5798 50.9067 65.5331 51.4886H64.9104C64.9104 50.6751 65.4117 50.1558 66.5543 50.1558C67.697 50.1558 68.1982 50.6751 68.1982 51.4886V53.3002C68.1707 53.6567 68.2141 54.0151 68.3259 54.3546H67.7343C67.5854 54.123 67.5236 53.8456 67.56 53.5724C67.3358 54.1481 66.8532 54.4359 66.1278 54.4359C65.2 54.4359 64.6738 53.9572 64.6738 53.1907ZM67.5289 52.5649V52.1582C67.3272 52.3228 67.0724 52.4074 66.8128 52.396L66.2492 52.446C65.5985 52.4929 65.3339 52.7589 65.3339 53.1562C65.3339 53.6256 65.6203 53.9791 66.3053 53.9791C67.1148 53.9729 67.5289 53.3252 67.5289 52.5587V52.5649Z" fill="#13486b"/>
<path d="M69.0371 52.1769C69.0371 50.9786 69.7096 50.1557 70.8149 50.1557C71.1208 50.1279 71.4274 50.2007 71.6885 50.3632C71.9497 50.5258 72.1512 50.7692 72.2626 51.0568V50.2339H72.8853V54.0823C72.8853 55.3526 72.2097 56.0002 70.9955 56.0002C69.8435 56.0002 69.255 55.4183 69.255 54.5704H69.8591C69.9151 55.1961 70.3354 55.5434 71.0266 55.5434C71.7832 55.5434 72.2253 55.1367 72.2253 54.2262V53.3345C71.9949 53.9071 71.5123 54.1949 70.8118 54.1949C69.7096 54.1949 69.0371 53.3721 69.0371 52.1769ZM72.2284 52.1769C72.2284 51.1694 71.7147 50.6344 70.9581 50.6344C70.2015 50.6344 69.694 51.1694 69.694 52.1769C69.694 53.1844 70.2109 53.7162 70.9581 53.7162C71.7053 53.7162 72.2284 53.1812 72.2284 52.1769Z" fill="#13486b"/>
<path d="M73.7383 52.2958C73.7383 51.0256 74.389 50.1558 75.653 50.1558C76.9171 50.1558 77.5771 51.0506 77.5771 52.1988C77.585 52.2654 77.585 52.3326 77.5771 52.3991H74.3983C74.3983 53.516 74.9401 53.9635 75.7028 53.9635C75.9726 53.9835 76.2406 53.9072 76.4599 53.7481C76.6792 53.589 76.8355 53.3572 76.9015 53.0937H77.4899C77.2969 53.9134 76.7334 54.4265 75.7028 54.4265C74.4388 54.4359 73.7383 53.6193 73.7383 52.2958ZM74.3983 51.9517H76.9171C76.8299 51.0568 76.3598 50.6188 75.653 50.6188C74.9463 50.6188 74.4886 51.0568 74.3983 51.9611V51.9517Z" fill="#13486b"/>
<path d="M83.1322 54.3548V51.7203C83.1322 51.0351 82.9236 50.691 82.3756 50.691C81.8277 50.691 81.398 51.2103 81.398 52.0395V54.3548H80.7753V51.7203C80.7753 51.0351 80.5605 50.691 80.0281 50.691C79.4957 50.691 79.066 51.2103 79.066 52.0395V54.3548H78.4434V50.2342H79.066V50.9945C79.1447 50.7481 79.3 50.5337 79.5091 50.3827C79.7182 50.2318 79.9699 50.1523 80.2274 50.156C80.4927 50.1282 80.7585 50.205 80.9687 50.3701C81.1789 50.5353 81.3172 50.7759 81.3544 51.0414C81.4337 50.7807 81.5955 50.5532 81.8152 50.3934C82.035 50.2335 82.3006 50.1502 82.5718 50.156C83.3906 50.156 83.7798 50.6347 83.7798 51.6327V54.3548H83.1322Z" fill="#13486b"/>
<path d="M84.6172 52.2958C84.6172 51.0256 85.2679 50.1558 86.532 50.1558C87.796 50.1558 88.4529 51.0506 88.4529 52.1988C88.4556 52.266 88.4504 52.3332 88.4374 52.3991H85.2741C85.2928 53.516 85.8159 53.9635 86.5786 53.9635C86.8485 53.9841 87.1169 53.9081 87.3363 53.7489C87.5557 53.5897 87.7119 53.3576 87.7773 53.0937H88.3658C88.1759 53.9134 87.6123 54.4265 86.5786 54.4265C85.3146 54.4359 84.6172 53.6193 84.6172 52.2958ZM85.2741 51.9517H87.7929C87.7057 51.0568 87.2387 50.6188 86.532 50.6188C85.8252 50.6188 85.3644 51.0568 85.2741 51.9611V51.9517Z" fill="#13486b"/>
<path d="M91.9959 54.3545V51.7357C91.9959 51.0505 91.7499 50.6907 91.093 50.6907C90.436 50.6907 89.9628 51.2257 89.9628 52.0549V54.3545H89.3027V50.2339H89.9254V50.9942C90.034 50.7312 90.2218 50.5089 90.4625 50.3585C90.7031 50.2082 90.9845 50.1372 91.2673 50.1557C92.2013 50.1557 92.6497 50.6344 92.6497 51.6325V54.3545H91.9959Z" fill="#13486b"/>
<path d="M93.9447 53.397V50.7094H93.2441V50.2276H93.9447V48.9761H94.6047V50.2276H95.5886V50.7094H94.6047V53.4064C94.6047 53.8069 94.7386 53.9008 95.1589 53.9008L95.5886 53.8851V54.3482C95.4298 54.3482 95.1682 54.3888 95.025 54.3888C94.2373 54.3951 93.9447 54.1511 93.9447 53.397Z" fill="#13486b"/>
<path d="M98.3789 51.5136C98.3789 49.7802 99.2911 48.5913 101.063 48.5913C102.598 48.5913 103.553 49.5299 103.553 50.65H102.931C102.828 49.7959 102.215 49.1576 101.078 49.1576C99.7613 49.1576 99.0763 50.0118 99.0763 51.5136C99.0763 53.0154 99.7613 53.8695 101.078 53.8695C102.199 53.8695 102.828 53.2626 102.931 52.3271H103.553C103.553 53.4847 102.641 54.4358 101.063 54.4358C99.2911 54.4358 98.3789 53.2438 98.3789 51.5136Z" fill="#13486b"/>
<path d="M104.23 52.2958C104.23 51.0256 104.884 50.1558 106.145 50.1558C107.406 50.1558 108.069 51.0506 108.069 52.1988C108.072 52.266 108.067 52.3332 108.054 52.3991H104.891C104.906 53.516 105.432 53.9635 106.195 53.9635C106.465 53.9835 106.733 53.9072 106.952 53.7481C107.171 53.589 107.328 53.3572 107.394 53.0937H107.982C107.792 53.9134 107.226 54.4265 106.195 54.4265C104.931 54.4359 104.23 53.6193 104.23 52.2958ZM104.891 51.9517H107.409C107.322 51.0568 106.852 50.6188 106.145 50.6188C105.438 50.6188 104.978 51.0568 104.891 51.9611V51.9517Z" fill="#13486b"/>
<path d="M111.613 54.3545V51.7357C111.613 51.0505 111.367 50.6907 110.707 50.6907C110.047 50.6907 109.58 51.2257 109.58 52.0549V54.3545H108.92V50.2339H109.543V50.9942C109.651 50.7312 109.839 50.5089 110.08 50.3585C110.32 50.2082 110.602 50.1372 110.884 50.1557C111.819 50.1557 112.267 50.6344 112.267 51.6325V54.3545H111.613Z" fill="#13486b"/>
<path d="M113.561 53.397V50.7094H112.863V50.2276H113.561V48.9761H114.221V50.2276H115.208V50.7094H114.221V53.4064C114.221 53.8069 114.355 53.9008 114.778 53.9008L115.208 53.8851V54.3482C115.049 54.3482 114.784 54.3888 114.641 54.3888C113.856 54.3951 113.561 54.1511 113.561 53.397Z" fill="#13486b"/>
<path d="M115.611 52.2958C115.611 51.0256 116.262 50.1558 117.526 50.1558C118.79 50.1558 119.447 51.0506 119.447 52.1988C119.455 52.2654 119.455 52.3326 119.447 52.3991H116.268C116.287 53.516 116.81 53.9635 117.573 53.9635C117.843 53.9841 118.111 53.9081 118.33 53.7489C118.55 53.5897 118.706 53.3576 118.771 53.0937H119.36C119.17 53.9134 118.606 54.4265 117.573 54.4265C116.309 54.4359 115.611 53.6193 115.611 52.2958ZM116.268 51.9517H118.787C118.7 51.0568 118.233 50.6188 117.542 50.6188C116.85 50.6188 116.359 51.0568 116.268 51.9611V51.9517Z" fill="#13486b"/>
<path d="M120.297 54.3544V50.2338H120.92V51.21C121.141 50.4904 121.514 50.1963 122.128 50.1963C122.253 50.1986 122.378 50.2111 122.501 50.2338V50.8095H122.103C121.405 50.8095 120.951 51.3696 120.951 52.3739V54.3607L120.297 54.3544Z" fill="#13486b"/>
<path d="M60.6922 38.5668V20.4982C60.6922 20.0833 60.5282 19.6854 60.2363 19.392C59.9443 19.0986 59.5484 18.9338 59.1355 18.9338H55.2188C54.806 18.9338 54.41 18.769 54.1181 18.4756C53.8261 18.1822 53.6621 17.7843 53.6621 17.3694V13.4272C53.6621 13.0123 53.8261 12.6144 54.1181 12.321C54.41 12.0276 54.806 11.8628 55.2188 11.8628H73.202C73.6149 11.8628 74.0108 12.0276 74.3028 12.321C74.5947 12.6144 74.7587 13.0123 74.7587 13.4272V17.36C74.7587 17.7749 74.5947 18.1728 74.3028 18.4662C74.0108 18.7596 73.6149 18.9244 73.202 18.9244H69.2884C68.8756 18.9244 68.4796 19.0892 68.1877 19.3826C67.8957 19.676 67.7317 20.0739 67.7317 20.4888V38.5574C67.7317 38.9723 67.5677 39.3702 67.2758 39.6636C66.9838 39.957 66.5879 40.1218 66.175 40.1218H62.2552C61.8429 40.1235 61.4467 39.9607 61.1537 39.6691C60.8607 39.3776 60.6947 38.9812 60.6922 38.5668Z" fill="#13486b"/>
<path d="M77.0449 38.5666V34.6369C77.0449 34.222 77.2089 33.8241 77.5009 33.5307C77.7928 33.2374 78.1888 33.0725 78.6016 33.0725H89.5485C89.9613 33.0725 90.3573 32.9077 90.6492 32.6143C90.9412 32.321 91.1052 31.923 91.1052 31.5082V31.1108C91.1052 30.6959 90.9412 30.298 90.6492 30.0046C90.3573 29.7112 89.9613 29.5464 89.5485 29.5464H80.5631C80.1007 29.5556 79.6414 29.4698 79.2131 29.2945C78.7848 29.1191 78.3967 28.8577 78.0724 28.5264C77.746 28.198 77.4881 27.8075 77.3138 27.3777C77.1396 26.9479 77.0524 26.4875 77.0574 26.0234V15.3919C77.0495 14.9302 77.1355 14.4718 77.31 14.0446C77.4845 13.6175 77.7439 13.2306 78.0724 12.9076C78.3952 12.5724 78.7824 12.3066 79.2106 12.1265C79.6388 11.9463 80.0989 11.8555 80.5631 11.8595H96.5942C97.007 11.8595 97.403 12.0243 97.6949 12.3177C97.9869 12.6111 98.1509 13.009 98.1509 13.4239V17.3599C98.1509 17.7748 97.9869 18.1727 97.6949 18.4661C97.403 18.7594 97.007 18.9243 96.5942 18.9243H85.6411C85.2282 18.9243 84.8323 19.0891 84.5403 19.3825C84.2484 19.6758 84.0844 20.0737 84.0844 20.4886V20.8922C84.0844 21.3071 84.2484 21.7051 84.5403 21.9984C84.8323 22.2918 85.2282 22.4566 85.6411 22.4566H94.6327C95.0945 22.4496 95.5528 22.5391 95.9784 22.7195C96.4039 22.9 96.7875 23.1674 97.1048 23.5048C97.4385 23.826 97.7034 24.2123 97.8832 24.64C98.0631 25.0677 98.1542 25.5278 98.1509 25.9921V36.5955C98.1588 37.0625 98.0702 37.5261 97.8906 37.957C97.7111 38.3878 97.4446 38.7765 97.1079 39.0985C96.7851 39.4269 96.4 39.6867 95.9753 39.8625C95.5506 40.0383 95.0951 40.1264 94.6358 40.1216H78.6047C78.193 40.1225 77.7976 39.9593 77.5053 39.6679C77.2129 39.3764 77.0474 38.9805 77.0449 38.5666Z" fill="#13486b"/>
<path d="M100.43 38.5666V34.6369C100.43 34.222 100.594 33.8241 100.886 33.5307C101.178 33.2373 101.574 33.0725 101.986 33.0725H112.933C113.346 33.0725 113.742 32.9077 114.034 32.6143C114.326 32.3209 114.49 31.923 114.49 31.5081V31.1108C114.49 30.6959 114.326 30.298 114.034 30.0046C113.742 29.7112 113.346 29.5464 112.933 29.5464H103.948C103.486 29.5556 103.026 29.4698 102.598 29.2944C102.17 29.1191 101.781 28.8577 101.457 28.5264C101.131 28.198 100.873 27.8075 100.699 27.3777C100.524 26.9479 100.437 26.4875 100.442 26.0234V15.3919C100.434 14.9302 100.52 14.4718 100.695 14.0446C100.869 13.6175 101.129 13.2306 101.457 12.9076C101.78 12.5724 102.167 12.3066 102.595 12.1265C103.024 11.9463 103.484 11.8555 103.948 11.8595H119.973C120.386 11.8595 120.782 12.0243 121.073 12.3177C121.365 12.6111 121.529 13.009 121.529 13.4239V17.3599C121.529 17.7748 121.365 18.1727 121.073 18.4661C120.782 18.7594 120.386 18.9243 119.973 18.9243H109.026C108.613 18.9243 108.217 19.0891 107.925 19.3824C107.633 19.6758 107.469 20.0737 107.469 20.4886V20.8922C107.469 21.3071 107.633 21.7051 107.925 21.9984C108.217 22.2918 108.613 22.4566 109.026 22.4566H118.014C118.477 22.4493 118.936 22.5387 119.362 22.7192C119.788 22.8996 120.172 23.1671 120.49 23.5048C120.825 23.828 121.09 24.217 121.269 24.6475C121.449 25.0781 121.538 25.541 121.533 26.0078V36.6112C121.54 37.0782 121.452 37.5418 121.272 37.9726C121.093 38.4034 120.826 38.7922 120.49 39.1142C120.166 39.4429 119.781 39.703 119.356 39.8788C118.93 40.0545 118.474 40.1424 118.014 40.1373H101.99C101.784 40.1377 101.581 40.0973 101.391 40.0185C101.202 39.9397 101.03 39.8239 100.885 39.678C100.74 39.532 100.625 39.3587 100.547 39.1679C100.469 38.9772 100.429 38.7729 100.43 38.5666Z" fill="#13486b"/>
<path d="M28.1682 11.9841H28.0443C27.9916 11.9841 27.942 11.9841 27.8893 11.9841C26.1635 11.9841 24.5083 11.2957 23.2879 10.0705C22.0675 8.84519 21.3819 7.18338 21.3819 5.45059C21.3819 5.38525 21.3819 5.31992 21.3819 5.25458C21.385 4.20976 21.0768 3.18788 20.497 2.32024C19.9172 1.4526 19.0923 0.778817 18.1282 0.385467C17.1641 -0.00788329 16.1049 -0.102838 15.0866 0.112801C14.0684 0.328441 13.1376 0.844825 12.4139 1.59561C11.6902 2.3464 11.2065 3.29729 11.0252 4.32613C10.8438 5.35497 10.973 6.41475 11.3961 7.36933C11.8192 8.32391 12.5169 9.12968 13.3995 9.68311C14.2822 10.2365 15.3095 10.5124 16.3495 10.4752C18.0754 10.4752 19.7306 11.1635 20.951 12.3888C22.1713 13.614 22.8569 15.2759 22.8569 17.0086C22.8569 17.0771 22.8569 17.1455 22.8569 17.214C22.8571 18.2439 23.1602 19.2509 23.7282 20.1086C24.2962 20.9663 25.1038 21.6365 26.0497 22.0352C26.9955 22.4339 28.0376 22.5433 29.0452 22.3496C30.0527 22.156 30.9809 21.668 31.7133 20.9468C32.4457 20.2257 32.9497 19.3034 33.1621 18.2958C33.3745 17.2881 33.2858 16.2399 32.9072 15.2827C32.5286 14.3255 31.8769 13.5018 31.0338 12.9149C30.1908 12.3281 29.1939 12.0043 28.1682 11.9841Z" fill="#81d401"/>
<path d="M10.4168 27.9655V27.8379C10.4168 27.7851 10.4168 27.7353 10.4168 27.6824C10.4168 25.9496 11.1024 24.2878 12.3228 23.0625C13.5431 21.8372 15.1983 21.1489 16.9242 21.1489C16.9893 21.1489 17.0512 21.1489 17.1163 21.1489C18.1303 21.1499 19.1226 20.8536 19.9712 20.2964C20.8198 19.7391 21.4879 18.9451 21.8933 18.0119C22.2987 17.0788 22.4239 16.0471 22.2535 15.0435C22.083 14.0399 21.6243 13.1081 20.9338 12.3626C20.2432 11.6171 19.3508 11.0903 18.3662 10.8469C17.3816 10.6035 16.3476 10.6541 15.3913 10.9925C14.4349 11.3309 13.5978 11.9423 12.9827 12.7517C12.3676 13.5611 12.0014 14.5333 11.929 15.5488C11.929 15.7292 11.929 15.9097 11.929 16.087C11.929 17.8198 11.2434 19.4816 10.023 20.7069C8.80263 21.9321 7.14745 22.6205 5.42158 22.6205C5.35341 22.6205 5.28523 22.6205 5.21396 22.6205C4.18839 22.6195 3.18534 22.9225 2.33057 23.4915C1.47581 24.0605 0.807346 24.8702 0.408995 25.819C0.0106447 26.7678 -0.0998712 27.8136 0.0913019 28.8253C0.282475 29.8369 0.76683 30.7694 1.48365 31.5058C2.20047 32.2422 3.11785 32.7498 4.12079 32.9649C5.12374 33.18 6.16762 33.0931 7.12156 32.715C8.07551 32.337 8.89708 31.6846 9.48328 30.8397C10.0695 29.9948 10.3942 28.9949 10.4168 27.9655Z" fill="#58c402"/>
<path d="M27.9643 33.5317H27.8403C27.7877 33.5317 27.735 33.5317 27.6823 33.5317C25.9564 33.5317 24.3012 32.8433 23.0809 31.618C21.8605 30.3928 21.1749 28.731 21.1749 26.9982C21.1749 26.9328 21.1749 26.8675 21.1749 26.8022C21.178 25.7576 20.87 24.7359 20.2905 23.8684C19.711 23.0009 18.8865 22.3271 17.9228 21.9335C16.959 21.5399 15.9001 21.4446 14.882 21.6597C13.8639 21.8748 12.9331 22.3905 12.2091 23.1407C11.4851 23.8908 11.0009 24.8411 10.8188 25.8696C10.6367 26.898 10.765 27.9577 11.1871 28.9124C11.6093 29.8671 12.306 30.6734 13.1879 31.2276C14.0698 31.7818 15.0965 32.0587 16.1363 32.0227C17.8622 32.0227 19.5174 32.7111 20.7377 33.9364C21.9581 35.1616 22.6437 36.8234 22.6437 38.5562C22.6437 38.6247 22.6437 38.6931 22.6437 38.7616C22.6421 39.7915 22.9435 40.799 23.5099 41.6577C24.0764 42.5164 24.8828 43.188 25.828 43.5884C26.7732 43.9887 27.815 44.0999 28.8229 43.9081C29.8308 43.7163 30.7598 43.2299 31.4935 42.51C32.2272 41.7902 32.7328 40.8688 32.947 39.8616C33.1611 38.8543 33.0743 37.806 32.6974 36.8481C32.3205 35.8902 31.6702 35.0653 30.8282 34.477C29.9862 33.8887 28.9899 33.5631 27.9643 33.541V33.5317Z" fill="#f9a138"/>
<path d="M32.0906 28.1408V28.0132C32.0906 27.9603 32.0906 27.9106 32.0906 27.8577C32.0906 26.1249 32.7762 24.4631 33.9966 23.2378C35.217 22.0125 36.8721 21.3242 38.598 21.3242C38.6631 21.3242 38.7251 21.3242 38.7901 21.3242C39.8042 21.3252 40.7964 21.0289 41.645 20.4716C42.4936 19.9144 43.1617 19.1204 43.5671 18.1872C43.9726 17.2541 44.0977 16.2224 43.9273 15.2188C43.7568 14.2152 43.2981 13.2834 42.6076 12.5379C41.917 11.7924 41.0246 11.2656 40.04 11.0222C39.0554 10.7788 38.0214 10.8294 37.0651 11.1678C36.1087 11.5062 35.2716 12.1176 34.6565 12.927C34.0415 13.7364 33.6752 14.7086 33.6028 15.7241C33.6028 15.9076 33.6028 16.0881 33.6028 16.2654C33.6028 17.9982 32.9172 19.66 31.6968 20.8853C30.4765 22.1105 28.8213 22.7989 27.0954 22.7989C27.0272 22.7989 26.9591 22.7989 26.8878 22.7989C25.8622 22.7979 24.8592 23.1009 24.0044 23.6699C23.1496 24.2389 22.4812 25.0486 22.0828 25.9974C21.6845 26.9462 21.574 27.992 21.7651 29.0037C21.9563 30.0153 22.4407 30.9478 23.1575 31.6842C23.8743 32.4206 24.7917 32.9282 25.7946 33.1433C26.7976 33.3584 27.8414 33.2715 28.7954 32.8934C29.7493 32.5154 30.5709 31.863 31.1571 31.0181C31.7433 30.1732 32.068 29.1733 32.0906 28.1439V28.1408Z" fill="#f2822f"/>
</svg>
