<svg width="20" height="20" viewBox="0 0 20 20" fill="none" xmlns="http://www.w3.org/2000/svg">
<path d="M9.5487 11.4416C10.842 11.4416 11.8904 10.3932 11.8904 9.09997C11.8904 7.8067 10.842 6.7583 9.5487 6.7583C8.25543 6.7583 7.20703 7.8067 7.20703 9.09997C7.20703 10.3932 8.25543 11.4416 9.5487 11.4416Z" stroke="currentColor" stroke-width="1.5" stroke-linecap="round" stroke-linejoin="round"/>
<path d="M13.8746 16.8334C13.8746 14.8917 11.9413 13.3083 9.54961 13.3083C7.15794 13.3083 5.22461 14.8834 5.22461 16.8334" stroke="currentColor" stroke-width="1.5" stroke-linecap="round" stroke-linejoin="round"/>
<path d="M17.4993 10.4167C17.4993 14.7917 13.9577 18.3333 9.58268 18.3333C5.20768 18.3333 1.66602 14.7917 1.66602 10.4167C1.66602 6.04167 5.20768 2.5 9.58268 2.5C10.6743 2.5 11.716 2.71666 12.666 3.11666C12.5577 3.44999 12.4993 3.8 12.4993 4.16667C12.4993 4.79167 12.6744 5.38333 12.9827 5.88333C13.1494 6.16666 13.366 6.42498 13.616 6.64164C14.1993 7.17498 14.9743 7.5 15.8327 7.5C16.1993 7.5 16.5493 7.44165 16.8743 7.32498C17.2743 8.27498 17.4993 9.325 17.4993 10.4167Z" stroke="currentColor" stroke-width="1.5" stroke-linecap="round" stroke-linejoin="round"/>
<path d="M19.1667 4.16659C19.1667 4.43325 19.1333 4.69158 19.0667 4.94158C18.9917 5.27491 18.8583 5.59992 18.6833 5.88325C18.2833 6.55825 17.6417 7.08323 16.875 7.3249C16.55 7.44157 16.2 7.49992 15.8333 7.49992C14.975 7.49992 14.2 7.17489 13.6167 6.64156C13.3667 6.42489 13.15 6.16658 12.9833 5.88325C12.675 5.38325 12.5 4.79159 12.5 4.16659C12.5 3.79992 12.5583 3.44991 12.6667 3.11658C12.825 2.63324 13.0917 2.19994 13.4417 1.8416C14.05 1.2166 14.9 0.833252 15.8333 0.833252C16.8167 0.833252 17.7083 1.25827 18.3083 1.9416C18.8417 2.53327 19.1667 3.31659 19.1667 4.16659Z" stroke="currentColor" stroke-width="1.5" stroke-miterlimit="10" stroke-linecap="round" stroke-linejoin="round"/>
<path d="M17.0751 4.1499H14.5918" stroke="currentColor" stroke-width="1.5" stroke-miterlimit="10" stroke-linecap="round" stroke-linejoin="round"/>
<path d="M15.834 2.93335V5.42501" stroke="currentColor" stroke-width="1.5" stroke-miterlimit="10" stroke-linecap="round" stroke-linejoin="round"/>
</svg>
