<svg width="48" height="48" viewBox="0 0 48 48" fill="none" xmlns="http://www.w3.org/2000/svg">
<path d="M32.2802 5.92009L14.2202 11.9201C2.08023 15.9801 2.08023 22.6001 14.2202 26.6401L19.5802 28.4201L21.3602 33.7801C25.4002 45.9201 32.0402 45.9201 36.0802 33.7801L42.1002 15.7401C44.7802 7.64009 40.3802 3.22009 32.2802 5.92009ZM32.9202 16.6801L25.3202 24.3201C25.0202 24.6201 24.6402 24.7601 24.2602 24.7601C23.8802 24.7601 23.5002 24.6201 23.2002 24.3201C22.6202 23.7401 22.6202 22.7801 23.2002 22.2001L30.8002 14.5601C31.3802 13.9801 32.3402 13.9801 32.9202 14.5601C33.5002 15.1401 33.5002 16.1001 32.9202 16.6801Z" fill="#446DFF"/>
</svg>
